<svg width="83" height="83" viewBox="0 0 83 83" fill="none" xmlns="http://www.w3.org/2000/svg">
<path fill-rule="evenodd" clip-rule="evenodd" d="M38.7209 63.3893V75.0267C38.7209 75.2848 38.5058 75.4999 38.2477 75.4999H17.5328C17.4252 75.4999 17.3392 75.4569 17.2531 75.4138L17.1026 75.3063C17.0811 75.2848 17.0595 75.2848 17.0595 75.2633L16.995 75.1987C6.56228 67.2828 0.582275 55.2367 0.582275 42.1151C0.582275 19.2707 19.017 0.685333 41.6679 0.685333C64.3618 0.685333 82.7965 19.2707 82.8396 42.0506C82.8396 61.6684 69.0296 78.748 49.9496 82.663L49.2612 82.8136C49.1106 82.8351 48.9816 82.8136 48.8525 82.7275C48.745 82.6415 48.6804 82.5124 48.6804 82.3618V77.0272C48.6804 76.812 48.831 76.6185 49.0461 76.5754L49.5193 76.4679C57.1342 74.704 63.9961 70.3588 68.9651 64.2067C73.9556 57.9901 76.7305 50.0956 76.7305 42.0721C76.7305 22.5833 61.0061 6.75138 41.7324 6.75138C22.4588 6.75138 6.73436 22.5833 6.73436 42.0721C6.73436 52.6124 11.4022 62.5289 19.6408 69.2833H32.6334V57.6459C32.6334 57.3878 32.8485 57.1727 33.1066 57.1727H48.6804V45.5354C48.6804 45.2772 48.8955 45.0621 49.1537 45.0621H64.0176C64.4909 44.1156 64.7275 43.1046 64.7275 42.0721C64.7275 39.5553 63.3508 37.2322 61.1567 35.9846C60.0381 35.3823 58.9196 35.0596 57.758 35.0596H57.1772C56.9191 35.0596 56.704 34.8445 56.704 34.5864V34.0056C56.704 32.8655 56.4888 31.6609 56.0371 30.3917C54.5098 25.939 50.3583 22.9705 45.7334 22.9705C41.7755 22.9705 38.1186 25.1646 36.1826 28.7139C35.5373 29.8755 35.1286 31.1016 34.9565 32.3707L34.806 33.3387C34.7845 33.5108 34.6769 33.6399 34.5048 33.7044C34.3542 33.7689 34.1606 33.7474 34.0316 33.6399L33.2572 33.0161C32.2462 32.2417 31.1491 31.6394 29.9445 31.3597C29.0626 31.1661 28.3527 31.0586 27.7074 31.0586C22.8029 31.0586 18.7589 35.1241 18.7589 40.1146C18.7589 41.8785 19.2752 43.6209 20.2862 45.1266H38.2692C38.5273 45.1266 38.7424 45.3417 38.7424 45.5999V50.784C38.7424 51.0421 38.5273 51.2572 38.2692 51.2572H17.6403C17.5113 51.2572 17.4037 51.2142 17.2962 51.1282L17.1456 50.9776C15.898 49.773 14.887 48.3102 14.0911 46.6324C13.1231 44.5458 12.6068 42.3517 12.6068 40.1361C12.6068 31.7899 19.3612 24.9495 27.6859 24.9495C28.7614 24.9495 29.8155 25.0786 31.0416 25.3797C34.0961 20.0881 39.6674 16.8399 45.6904 16.8399C53.4128 16.8399 60.3178 22.2822 62.2107 29.854C67.3733 31.7684 70.772 36.6729 70.772 42.1582C70.772 43.6209 70.4924 45.0406 69.9761 46.5464C69.4168 48.2027 68.5134 49.6654 67.3948 50.9346L67.2442 51.1282C67.1582 51.2357 67.0076 51.3002 66.8786 51.3002H54.725V62.9376C54.725 63.1957 54.5098 63.4108 54.2517 63.4108H38.7209V63.3893Z" fill="#0E100F"/>
</svg>
