<?xml version="1.0" encoding="utf-8"?>
<!-- Generator: Adobe Illustrator 25.2.1, SVG Export Plug-In . SVG Version: 6.00 Build 0)  -->
<svg version="1.1" id="Layer_1" xmlns="http://www.w3.org/2000/svg" xmlns:xlink="http://www.w3.org/1999/xlink" x="0px" y="0px"
	 viewBox="0 0 517 144" style="enable-background:new 0 0 517 144;" xml:space="preserve">
<style type="text/css">
	.st0{fill-rule:evenodd;clip-rule:evenodd;fill:#08A176;}
	.st1{fill:#08A176;}
</style>
<path class="st0" d="M66.8,110v20.4c0,0.5-0.4,0.8-0.8,0.8H29.7c-0.2,0-0.3-0.1-0.5-0.2l-0.3-0.2c0,0-0.1,0-0.1-0.1l-0.1-0.1
	C10.5,116.8,0,95.7,0,72.7c0-40,32.3-72.5,71.9-72.5c39.7,0,72,32.5,72.1,72.4c0,34.3-24.2,64.2-57.6,71.1l-1.2,0.3
	c-0.3,0-0.5,0-0.7-0.1c-0.2-0.2-0.3-0.4-0.3-0.6v-9.3c0-0.4,0.3-0.7,0.6-0.8l0.8-0.2c13.3-3.1,25.3-10.7,34-21.5
	c8.7-10.9,13.6-24.7,13.6-38.7c0-34.1-27.5-61.8-61.3-61.8c-33.7,0-61.3,27.7-61.3,61.8c0,18.5,8.2,35.8,22.6,47.6h22.7V99.9
	c0-0.5,0.4-0.8,0.8-0.8h27.3V78.7c0-0.5,0.4-0.8,0.8-0.8h26c0.8-1.7,1.2-3.4,1.2-5.2c0-4.4-2.4-8.5-6.3-10.7c-2-1.1-3.9-1.6-5.9-1.6
	h-1c-0.5,0-0.8-0.4-0.8-0.8v-1c0-2-0.4-4.1-1.2-6.3c-2.7-7.8-9.9-13-18-13c-6.9,0-13.3,3.8-16.7,10.1c-1.1,2-1.8,4.2-2.1,6.4
	l-0.3,1.7c0,0.3-0.2,0.5-0.5,0.6c-0.3,0.1-0.6,0.1-0.8-0.1l-1.4-1.1c-1.8-1.4-3.7-2.4-5.8-2.9c-1.5-0.3-2.8-0.5-3.9-0.5
	c-8.6,0-15.7,7.1-15.7,15.9c0,3.1,0.9,6.1,2.7,8.8H66c0.5,0,0.8,0.4,0.8,0.8v9.1c0,0.5-0.4,0.8-0.8,0.8H29.9c-0.2,0-0.4-0.1-0.6-0.2
	L29,88.3c-2.2-2.1-4-4.7-5.3-7.6C22,77,21,73.2,21,69.3c0-14.6,11.8-26.6,26.4-26.6c1.9,0,3.7,0.2,5.9,0.8
	c5.3-9.3,15.1-14.9,25.6-14.9c13.5,0,25.6,9.5,28.9,22.8c9,3.4,15,11.9,15,21.5c0,2.6-0.5,5-1.4,7.7c-1,2.9-2.6,5.5-4.5,7.7
	l-0.3,0.3c-0.2,0.2-0.4,0.3-0.6,0.3H94.8v20.4c0,0.5-0.4,0.8-0.8,0.8L66.8,110L66.8,110z"/>
<path class="st1" d="M198.4,34.1c7,0,13,1.6,18,4.7c5,3.2,8.8,7.5,11.4,13.2c2.7,5.6,4,12,4,19.3c0,7.3-1.3,13.7-4,19.4
	c-2.6,5.6-6.4,9.9-11.4,13.1c-5,3.2-11,4.7-18,4.7h-29.3V34.1H198.4z M181.6,44.5V98h14.8c7,0,12.6-2.3,16.6-6.9
	c4.1-4.6,6.1-11.2,6.1-19.8c0-8.6-2-15.2-6.1-19.8c-4-4.6-9.5-6.9-16.6-6.9H181.6z"/>
<path class="st1" d="M264.6,55.2c2.4,0,5.1,0.5,8.3,1.6l-2.1,9.9c-2.6-0.7-4.8-1.1-6.7-1.1c-3.7,0-6.6,1.4-8.7,4.3
	c-2.1,2.8-3.2,6.7-3.2,11.6v27h-11.5V55.9h10.7v7.9C254.2,58.1,258.6,55.2,264.6,55.2z"/>
<path class="st1" d="M323.5,99.5c-3.8,3.8-7.5,6.6-11.1,8.2c-3.7,1.6-7.7,2.4-12.2,2.4c-5.5,0-10.2-1.1-14.3-3.4
	c-4.1-2.3-7.2-5.5-9.5-9.6c-2.2-4.2-3.2-9-3.2-14.6c0-5.5,1.1-10.3,3.2-14.6c2.1-4.3,5.1-7.7,9-10.1c3.9-2.4,8.5-3.7,13.7-3.7
	c7.8,0,13.7,2.3,17.9,6.9c4.2,4.6,6.3,10.9,6.3,19c0,1.7-0.1,3.3-0.2,4.7h-38.6c0.4,4.6,2,8.4,4.6,11.2c2.7,2.9,6.4,4.3,11.2,4.3
	c3.2,0,5.8-0.6,8.1-1.7c2.2-1.1,5-3.2,8.4-6.2L323.5,99.5z M298.9,63.3c-3.8,0-6.9,1.2-9.2,3.5c-2.4,2.3-4,5.5-4.7,9.6h27.1
	c-0.2-4.1-1.5-7.2-3.8-9.5C306.1,64.5,302.9,63.3,298.9,63.3z"/>
<path class="st1" d="M355.2,54.2c7.1,0,12.6,1.7,16.5,5c3.8,3.3,5.8,7.7,5.8,13.3v36H367v-6c-1.7,2.4-4,4.3-7,5.6
	c-2.9,1.3-6.4,2-10.4,2c-5.5,0-9.9-1.2-13.5-3.7c-3.6-2.4-5.3-6.2-5.3-11.2c0-5.5,2.1-9.6,6.2-12.3c4.2-2.7,10-4.8,17.4-6.2l12-2.2
	v-1.9c0-2.9-1-5.1-2.9-6.6c-2-1.6-4.6-2.4-8-2.4c-3.3,0-6.1,0.7-8.6,2c-2.4,1.3-5.1,3.6-8.3,6.7l-7.2-6.8c3.3-3.9,6.9-6.8,10.7-8.7
	C345.9,55.1,350.3,54.2,355.2,54.2z M351.3,100.9c4.3,0,7.8-1.1,10.7-3.4c2.9-2.3,4.4-5.6,4.4-9.8V83l-9.1,1.9
	c-5.2,1.1-9.1,2.3-11.5,3.7c-2.4,1.3-3.7,3.4-3.7,6.1c0,2,0.8,3.5,2.4,4.6C346.2,100.4,348.4,100.9,351.3,100.9z"/>
<path class="st1" d="M444.2,54.2c5.6,0,10,1.6,13,4.8c3.1,3.2,4.6,7.4,4.6,12.7v36.8h-11.5V75.2c0-3.5-0.8-6.2-2.3-8.2
	c-1.5-2-3.9-2.9-7-2.9c-3.3,0-5.9,1.1-7.8,3.4c-1.9,2.2-2.8,5-2.8,8.4v32.7h-11.5V75.2c0-7.4-3.1-11.1-9.3-11.1
	c-3.1,0-5.6,1.1-7.5,3.2c-1.8,2.1-2.8,4.7-2.9,8v33.3h-11.5V55.9h10.7v6.1c3.2-5.2,8.2-7.8,15.1-7.8c3.5,0,6.5,0.7,9,2.2
	c2.5,1.4,4.5,3.4,5.9,5.9C431.9,56.9,437.2,54.2,444.2,54.2z"/>
<path class="st1" d="M493.2,54.2c4.4,0,8.3,0.6,11.6,1.8c3.4,1.2,7,3.2,10.6,6.2l-6.3,7.6c-3.2-2.4-6-4.1-8.4-4.9
	c-2.3-0.9-4.9-1.4-7.8-1.4c-3.1,0-5.5,0.6-7.3,1.8c-1.8,1.2-2.7,2.7-2.7,4.6c0,1.2,0.4,2.3,1.2,3c0.9,0.7,2.1,1.3,3.7,1.8
	c1.6,0.4,4.3,1.1,8.2,2c5,1.1,8.9,2.3,11.7,3.7s5,3,6.4,5c1.4,2,2.1,4.6,2.1,7.8c0,5-2,9.1-6,12.3c-3.9,3.1-9.2,4.6-15.9,4.6
	c-4.9,0-9.2-0.7-13-2.2c-3.8-1.5-7.8-4-11.9-7.6l6.7-7.5c3.8,3.2,7,5.3,9.6,6.4c2.7,1.1,5.6,1.7,8.8,1.7c3,0,5.5-0.6,7.5-1.8
	c2-1.2,2.9-2.9,2.9-5c0-1.6-0.6-2.9-1.7-3.8c-1.1-1-2.6-1.7-4.3-2.2c-1.7-0.6-4.3-1.2-7.8-1.9c-5-1.1-8.8-2.3-11.6-3.6
	c-2.7-1.2-4.7-2.8-5.9-4.7c-1.2-2-1.8-4.4-1.8-7.5c0-3.1,0.8-5.8,2.5-8.3c1.7-2.4,4.2-4.4,7.5-5.8C485.1,54.9,488.9,54.2,493.2,54.2
	z"/>
</svg>
